<svg width="54" height="18" viewBox="0 0 54 18" fill="none" xmlns="http://www.w3.org/2000/svg">
<g clip-path="url(#clip0_13701_1932)">
<path d="M7.77094 0.357187C7.56894 1.61071 7.75747 2.89603 8.31094 4.03875C7.41133 2.42272 6.04753 1.11378 4.39594 0.28125H0.28125V17.7188C1.93935 17.7184 3.5664 17.269 4.9896 16.4183C6.4128 15.5675 7.57901 14.3472 8.36438 12.8869C7.64747 14.3854 7.28743 16.0296 7.3125 17.6906C9.46077 17.5225 11.4707 16.5648 12.9545 15.0023C14.4384 13.4397 15.291 11.383 15.348 9.22893C15.4049 7.07484 14.6622 4.97596 13.263 3.33718C11.8638 1.69839 9.90732 0.635796 7.77094 0.354375V0.357187ZM8.53875 12.5494C9.15804 11.2779 9.47659 9.88095 9.46977 8.46666C9.46294 7.05237 9.13092 5.6586 8.49937 4.39313C9.03812 5.33427 9.8162 6.11617 10.7547 6.6595C11.6932 7.20284 12.7587 7.48829 13.8431 7.48688C14.253 7.48747 14.6619 7.44695 15.0638 7.36594C13.6791 7.73699 12.3855 8.38854 11.2631 9.28019C10.1407 10.1718 9.21338 11.2846 8.53875 12.5494ZM32.2144 10.5469H33.8794L35.3869 13.3903H37.17L35.4825 10.1841C36.0523 9.86974 36.5017 9.37519 36.7601 8.77798C37.0186 8.18076 37.0716 7.51466 36.9107 6.8841C36.7499 6.25355 36.3843 5.69421 35.8713 5.29379C35.3583 4.89337 34.727 4.67453 34.0763 4.67156H30.5719V13.3903H32.2144V10.5469ZM35.3081 7.60781C35.313 7.77943 35.2839 7.95033 35.2226 8.11071C35.1614 8.27108 35.069 8.41779 34.9509 8.54242C34.8328 8.66704 34.6913 8.76714 34.5344 8.83697C34.3776 8.90681 34.2085 8.945 34.0369 8.94938H32.2031V6.26625H34.0312C34.203 6.26809 34.3727 6.30374 34.5307 6.37116C34.6886 6.43859 34.8318 6.53647 34.9519 6.65922C35.0721 6.78197 35.1668 6.92718 35.2309 7.08657C35.2949 7.24595 35.3269 7.41638 35.325 7.58813L35.3081 7.60781ZM40.6097 4.67156L37.6284 13.3903H39.375L40.0275 11.3737H43.2563L43.9116 13.3903H45.6328L42.6572 4.67156H40.6097ZM40.5141 9.84375L41.6391 6.38719L42.75 9.84375H40.5141ZM52.4447 10.5553L53.7188 11.5959C53.174 12.371 52.3964 12.9523 51.4989 13.2555C50.6014 13.5588 49.6307 13.5683 48.7274 13.2826C47.8242 12.9969 47.0355 12.4309 46.4756 11.6666C45.9158 10.9024 45.614 9.97969 45.614 9.03234C45.614 8.085 45.9158 7.16228 46.4756 6.39805C47.0355 5.63381 47.8242 5.06779 48.7274 4.78208C49.6307 4.49638 50.6014 4.50586 51.4989 4.80914C52.3964 5.11242 53.174 5.69373 53.7188 6.46875L52.4447 7.51219C52.1261 6.99757 51.6467 6.60229 51.0808 6.38748C50.515 6.17267 49.8941 6.15031 49.3142 6.32385C48.7343 6.4974 48.2278 6.85717 47.873 7.34753C47.5182 7.83789 47.3348 8.43151 47.3512 9.03656C47.3434 9.40214 47.4085 9.76563 47.5426 10.1058C47.6768 10.446 47.8773 10.756 48.1326 11.0178C48.3879 11.2796 48.6927 11.488 49.0294 11.6307C49.3661 11.7734 49.7278 11.8477 50.0934 11.8491C50.5628 11.8484 51.0244 11.7292 51.4355 11.5026C51.8465 11.2759 52.1937 10.9491 52.4447 10.5525V10.5553ZM26.1197 9.03375C26.1208 8.46153 26.0091 7.89471 25.791 7.3657C25.5728 6.83669 25.2526 6.35586 24.8485 5.95072C24.4444 5.54558 23.9644 5.22407 23.4359 5.00459C22.9075 4.7851 22.341 4.67193 21.7688 4.67156H18.6019V13.3903H21.7659C22.9209 13.3896 24.0283 12.9302 24.8447 12.1133C25.6611 11.2964 26.1197 10.1887 26.1197 9.03375ZM20.25 11.8125V6.25781H21.7547C22.113 6.26107 22.4671 6.33553 22.7964 6.47689C23.1256 6.61824 23.4235 6.82366 23.6727 7.08118C23.9218 7.33871 24.1173 7.64321 24.2477 7.97697C24.3781 8.31073 24.4408 8.66709 24.4322 9.02531C24.4408 9.38367 24.3781 9.74017 24.2477 10.0741C24.1173 10.408 23.9219 10.7127 23.6728 10.9704C23.4237 11.2282 23.1258 11.4339 22.7966 11.5755C22.4673 11.7172 22.1131 11.792 21.7547 11.7956L20.25 11.8125ZM27.315 4.67156H28.9688V13.3903H27.315V4.67156Z" fill="white"/>
</g>
<defs>
<clipPath id="clip0_13701_1932">
<rect width="54" height="18" fill="white"/>
</clipPath>
</defs>
</svg>
